<svg xmlns="http://www.w3.org/2000/svg" viewBox="0 0 100 100">
  <defs>
    <linearGradient id="bg-gradient" x1="0%" y1="0%" x2="100%" y2="100%">
      <stop offset="0%" style="stop-color:#0f172a;stop-opacity:1" />
      <stop offset="100%" style="stop-color:#1e293b;stop-opacity:1" />
    </linearGradient>
    <linearGradient id="m-gradient" x1="0%" y1="0%" x2="100%" y2="100%">
      <stop offset="0%" style="stop-color:#22d3ee;stop-opacity:1" />
      <stop offset="100%" style="stop-color:#0ea5e9;stop-opacity:1" />
    </linearGradient>
  </defs>

  <rect width="100" height="100" fill="url(#bg-gradient)" />

  <path d="M20 80 L20 20 L50 50 L80 20 L80 80" 
        stroke="url(#m-gradient)" 
        stroke-width="12" 
        stroke-linecap="round" 
        stroke-linejoin="round"
        fill="none" />

  <g fill="url(#m-gradient)">
    <circle cx="20" cy="20" r="3" />
    <circle cx="80" cy="20" r="3" />
    <circle cx="20" cy="80" r="3" />
    <circle cx="80" cy="80" r="3" />
    <circle cx="50" cy="50" r="3" />
  </g>

  <g fill="url(#m-gradient)" opacity="0.7">
    <circle cx="35" cy="35" r="2" />
    <circle cx="65" cy="35" r="2" />
    <circle cx="35" cy="65" r="2" />
    <circle cx="65" cy="65" r="2" />
  </g>

  <g fill="url(#m-gradient)" opacity="0.4">
    <circle cx="27" cy="27" r="1.5" />
    <circle cx="73" cy="27" r="1.5" />
    <circle cx="27" cy="73" r="1.5" />
    <circle cx="73" cy="73" r="1.5" />
    <circle cx="50" cy="27" r="1.5" />
    <circle cx="50" cy="73" r="1.5" />
  </g>
</svg>
